<svg width="16" height="16" viewBox="0 0 16 16" fill="none" xmlns="http://www.w3.org/2000/svg">
<path d="M11 4.505H11.265C11.405 4.505 11.515 4.395 11.515 4.255C11.515 4.115 11.625 4.005 11.765 4.005H12.395C12.46 4.005 12.525 4.03 12.57 4.08L12.91 4.42C12.965 4.475 13.04 4.5 13.115 4.49L13.35 4.465C13.43 4.455 13.5 4.41 13.54 4.335L13.925 3.635C13.97 3.555 14.055 3.505 14.145 3.505H14.745C14.885 3.505 14.995 3.395 14.995 3.255V2.61C14.9954 2.57721 14.9889 2.5447 14.976 2.51456C14.9631 2.48443 14.944 2.45732 14.92 2.435L14.565 2.08C14.5188 2.0329 14.4559 2.00594 14.39 2.005H13.575C13.205 2.005 12.85 1.86 12.585 1.595L12.065 1.075C12.0188 1.0279 11.9559 1.00094 11.89 1H11.21C11.07 1 10.96 1.11 10.96 1.25V1.75C10.96 1.89 11.07 2 11.21 2H11.245C11.385 2 11.495 2.11 11.495 2.25V2.75C11.495 2.89 11.385 3 11.245 3H11.195C10.805 3 10.495 3.315 10.495 3.7V3.995C10.5 4.28 10.725 4.505 11 4.505ZM3.56 11.16L3.275 11.585C3.155 11.765 3.285 12.01 3.5 12.01H6.685C6.855 12.01 6.99 12.145 6.99 12.315V12.325C6.99 12.705 7.295 13.01 7.675 13.01H7.74C8.155 13.01 8.49 12.675 8.49 12.26C8.49 12.115 8.595 11.99 8.735 11.96L10.515 11.605C10.825 11.545 11.11 11.39 11.33 11.165L11.4 11.095C11.46 11.035 11.535 11.005 11.62 11.005H11.63C11.86 11.005 12.085 10.915 12.25 10.75C12.405 10.595 12.495 10.385 12.495 10.165V8.06C12.495 8.025 12.5 7.995 12.51 7.965L12.945 6.655C12.975 6.565 12.96 6.465 12.91 6.39L12.175 5.29C12.1259 5.21602 12.0502 5.16383 11.9636 5.14427C11.8769 5.12471 11.7861 5.1393 11.71 5.185L11.23 5.48C11.085 5.57 10.995 5.73 10.995 5.9V7.645C10.995 7.815 10.86 7.95 10.69 7.95C10.57 7.95 10.465 8.02 10.415 8.125L10.08 8.835C10.0549 8.88683 10.0159 8.93065 9.96736 8.96156C9.91879 8.99247 9.86257 9.00924 9.805 9.01C9.635 9.01 9.5 8.875 9.5 8.705V8.67C9.5 8.5 9.365 8.365 9.195 8.365H8.805C8.635 8.365 8.5 8.5 8.5 8.67V8.96C8.5 9.025 8.48 9.085 8.445 9.135L8.235 9.43C7.99937 9.7623 7.68756 10.0333 7.32567 10.2203C6.96379 10.4074 6.56236 10.505 6.155 10.505H4.785C4.29 10.51 3.835 10.755 3.56 11.16ZM1.495 13.76V14.76C1.495 14.9 1.605 15.01 1.745 15.01H1.96C2.57 15.01 3.1 14.595 3.245 14.005L3.46 13.145C3.47013 13.1035 3.46947 13.0602 3.45809 13.019C3.44671 12.9779 3.42499 12.9404 3.395 12.91L2.57 12.085C2.52384 12.0379 2.46094 12.0109 2.395 12.01H1.655C1.56 12.01 1.475 12.065 1.43 12.15L1.025 12.96C1.01 12.995 1 13.035 1 13.07V13.26C1 13.4 1.11 13.51 1.25 13.51C1.385 13.51 1.495 13.62 1.495 13.76Z" fill="#E2202A"/>
<path d="M6.21 12.51C6.27909 12.5093 6.34616 12.5333 6.39913 12.5776C6.45211 12.622 6.48752 12.6838 6.49897 12.7519C6.51043 12.82 6.49718 12.89 6.46162 12.9493C6.42606 13.0085 6.37052 13.0531 6.305 13.075L5.2 13.445C5.08 13.485 5 13.595 5 13.72C5 13.88 4.87 14.01 4.71 14.01H4.29C4.21309 14.01 4.13932 13.9795 4.08494 13.9251C4.03055 13.8707 4 13.7969 4 13.72V13.45C4 13.18 4.155 12.935 4.395 12.815L4.94 12.54C4.98 12.52 5.025 12.51 5.07 12.51H6.21ZM9.855 8.01C9.66 8.01 9.5 7.85 9.5 7.655C9.5 7.56 9.535 7.47 9.605 7.405L9.9 7.11C9.965 7.04 10.055 7.005 10.15 7.005C10.345 7.005 10.505 7.165 10.505 7.36C10.505 7.455 10.465 7.545 10.4 7.61L10.105 7.905C10.04 7.975 9.95 8.01 9.855 8.01Z" fill="#E2202A"/>
</svg>
